# xmcd
#
# Track frame offsets:
#	150
#	20905
#	44590
#	67465
#	88142
#	102942
#	125430
#	148770
#	167780
#	183862
#
# Disc length: 2729 seconds
#
# Revision: 0
# Processed by: cddbd v1.5.2PL0 Copyright (c) Steve Scherf et al.
# Submitted via: EasyCDDAExtractor 16.1.0.1
#
DISCID=990aa70a
DTITLE=張學友 - 祝福
DYEAR=1993
DGENRE=Other
TTITLE0=祝福
TTITLE1=回頭太難
TTITLE2=誰想輕輕偷走我的吻
TTITLE3=最後一封信
TTITLE4=明日約定
TTITLE5=好久
TTITLE6=情到道深處
TTITLE7=苦戀
TTITLE8=愛情的賭徒
TTITLE9=對你的愛越深就越來越心痛
EXTD=1993 Polygram Records LTD., Hong Kong YEAR: 1993 ID3G:  12\n
EXTT0=
EXTT1=
EXTT2=
EXTT3=
EXTT4=
EXTT5=
EXTT6=
EXTT7=
EXTT8=
EXTT9=
PLAYORDER=
